<svg width="17" height="16" viewBox="0 0 17 16" fill="none" xmlns="http://www.w3.org/2000/svg">
<path d="M4.35736 0.359375L5.38861 1.39062L2.63861 4.14062L2.12298 4.57031L1.60736 4.14062L0.232359 2.76562L1.26361 1.73438L2.12298 2.63672L4.35736 0.359375ZM7.62298 1.5625H16.5605V2.9375H7.62298V1.5625ZM4.35736 5.85938L5.38861 6.89062L2.63861 9.64062L2.12298 10.0703L1.60736 9.64062L0.232359 8.26562L1.26361 7.23438L2.12298 8.13672L4.35736 5.85938ZM7.62298 7.0625H16.5605V8.4375H7.62298V7.0625ZM4.35736 11.3594L5.38861 12.3906L2.63861 15.1406L2.12298 15.5703L1.60736 15.1406L0.232359 13.7656L1.26361 12.7344L2.12298 13.6367L4.35736 11.3594ZM7.62298 12.5625H16.5605V13.9375H7.62298V12.5625Z" fill="#202224"/>
</svg>
